<mxfile host="app.diagrams.net" agent="Mozilla/5.0 (Windows NT 10.0; Win64; x64; rv:133.0) Gecko/20100101 Firefox/133.0" version="26.0.3">
  <diagram name="Page-1" id="wxTndlMf3zguMZ8tWtVy">
    <mxGraphModel dx="882" dy="615" grid="1" gridSize="10" guides="1" tooltips="1" connect="1" arrows="1" fold="1" page="1" pageScale="1" pageWidth="850" pageHeight="1100" math="0" shadow="0">
      <root>
        <mxCell id="0" />
        <mxCell id="1" parent="0" />
        <mxCell id="V-X42Xi0GvqBC_ITq0Q1-8" value="Fc" style="swimlane;whiteSpace=wrap;html=1;" vertex="1" parent="1">
          <mxGeometry x="190" y="300" width="110" height="80" as="geometry">
            <mxRectangle x="380" y="220" width="50" height="30" as="alternateBounds" />
          </mxGeometry>
        </mxCell>
        <mxCell id="V-X42Xi0GvqBC_ITq0Q1-5" value="Ardupilot" style="rounded=0;whiteSpace=wrap;html=1;" vertex="1" parent="V-X42Xi0GvqBC_ITq0Q1-8">
          <mxGeometry x="10" y="30" width="90" height="40" as="geometry" />
        </mxCell>
        <mxCell id="V-X42Xi0GvqBC_ITq0Q1-9" value="RaspberryPi" style="swimlane;whiteSpace=wrap;html=1;" vertex="1" parent="1">
          <mxGeometry x="350" y="140" width="220" height="90" as="geometry" />
        </mxCell>
        <mxCell id="V-X42Xi0GvqBC_ITq0Q1-10" value="MavProxy" style="rounded=0;whiteSpace=wrap;html=1;" vertex="1" parent="V-X42Xi0GvqBC_ITq0Q1-9">
          <mxGeometry x="10" y="40" width="80" height="40" as="geometry" />
        </mxCell>
        <mxCell id="V-X42Xi0GvqBC_ITq0Q1-11" value="Dronekit python" style="rounded=0;whiteSpace=wrap;html=1;" vertex="1" parent="V-X42Xi0GvqBC_ITq0Q1-9">
          <mxGeometry x="100" y="40" width="110" height="40" as="geometry" />
        </mxCell>
        <mxCell id="V-X42Xi0GvqBC_ITq0Q1-12" value="Radiocontroller" style="rounded=0;whiteSpace=wrap;html=1;" vertex="1" parent="1">
          <mxGeometry x="500" y="430" width="120" height="60" as="geometry" />
        </mxCell>
        <mxCell id="V-X42Xi0GvqBC_ITq0Q1-13" value="" style="endArrow=none;dashed=1;html=1;rounded=0;entryX=0;entryY=0.5;entryDx=0;entryDy=0;exitX=0.5;exitY=1;exitDx=0;exitDy=0;" edge="1" parent="1" source="V-X42Xi0GvqBC_ITq0Q1-8" target="V-X42Xi0GvqBC_ITq0Q1-12">
          <mxGeometry width="50" height="50" relative="1" as="geometry">
            <mxPoint x="400" y="340" as="sourcePoint" />
            <mxPoint x="450" y="290" as="targetPoint" />
            <Array as="points">
              <mxPoint x="245" y="460" />
            </Array>
          </mxGeometry>
        </mxCell>
        <mxCell id="V-X42Xi0GvqBC_ITq0Q1-14" value="" style="endArrow=classic;startArrow=classic;html=1;rounded=0;exitX=1;exitY=0.5;exitDx=0;exitDy=0;entryX=0.5;entryY=1;entryDx=0;entryDy=0;" edge="1" parent="1" source="V-X42Xi0GvqBC_ITq0Q1-8" target="V-X42Xi0GvqBC_ITq0Q1-9">
          <mxGeometry width="50" height="50" relative="1" as="geometry">
            <mxPoint x="400" y="340" as="sourcePoint" />
            <mxPoint x="450" y="290" as="targetPoint" />
            <Array as="points">
              <mxPoint x="460" y="340" />
            </Array>
          </mxGeometry>
        </mxCell>
      </root>
    </mxGraphModel>
  </diagram>
</mxfile>
